<?xml version="1.0" encoding="UTF-8" standalone="no"?><svg xmlns="http://www.w3.org/2000/svg" xmlns:xlink="http://www.w3.org/1999/xlink" contentStyleType="text/css" height="4019px" preserveAspectRatio="none" style="width:957px;height:4019px;background:#FFFFFF;" version="1.1" viewBox="0 0 957 4019" width="957px" zoomAndPan="magnify"><defs/><g><rect fill="#F1F1F1" height="36.2969" rx="12.5" ry="12.5" style="stroke:#181818;stroke-width:1.5;" width="138" x="10" y="1990.3906"/><text fill="#000000" font-family="sans-serif" font-size="14" lengthAdjust="spacing" textLength="118" x="20" y="2013.3857">VastGo Features</text><rect fill="#F1F1F1" height="36.2969" rx="12.5" ry="12.5" style="stroke:#181818;stroke-width:1.5;" width="109" x="198" y="1371.125"/><text fill="#000000" font-family="sans-serif" font-size="14" lengthAdjust="spacing" textLength="89" x="208" y="1394.1201">Standard Go</text><rect fill="#F1F1F1" height="36.2969" rx="12.5" ry="12.5" style="stroke:#181818;stroke-width:1.5;" width="165" x="357" y="301.4844"/><text fill="#000000" font-family="sans-serif" font-size="14" lengthAdjust="spacing" textLength="145" x="367" y="324.4795">basic game features</text><rect fill="#F1F1F1" height="36.2969" rx="12.5" ry="12.5" style="stroke:#181818;stroke-width:1.5;" width="179" x="572" y="20"/><text fill="#000000" font-family="sans-serif" font-size="14" lengthAdjust="spacing" textLength="159" x="582" y="42.9951">static Go board 19x19</text><path d="M522,319.6328 L532,319.6328 C547,319.6328 547,38.1484 562,38.1484 L572,38.1484 " fill="none" style="stroke:#181818;stroke-width:1.0;"/><rect fill="#F1F1F1" height="36.2969" rx="12.5" ry="12.5" style="stroke:#181818;stroke-width:1.5;" width="210" x="572" y="76.2969"/><text fill="#000000" font-family="sans-serif" font-size="14" lengthAdjust="spacing" textLength="190" x="582" y="99.292">mouse click to play stones</text><path d="M522,319.6328 L532,319.6328 C547,319.6328 547,94.4453 562,94.4453 L572,94.4453 " fill="none" style="stroke:#181818;stroke-width:1.0;"/><rect fill="#F1F1F1" height="36.2969" rx="12.5" ry="12.5" style="stroke:#181818;stroke-width:1.5;" width="150" x="572" y="132.5938"/><text fill="#000000" font-family="sans-serif" font-size="14" lengthAdjust="spacing" textLength="130" x="582" y="155.5889">dynamic Go board</text><path d="M522,319.6328 L532,319.6328 C547,319.6328 547,150.7422 562,150.7422 L572,150.7422 " fill="none" style="stroke:#181818;stroke-width:1.0;"/><rect fill="#F1F1F1" height="36.2969" rx="12.5" ry="12.5" style="stroke:#181818;stroke-width:1.5;" width="323" x="572" y="188.8906"/><text fill="#000000" font-family="sans-serif" font-size="14" lengthAdjust="spacing" textLength="303" x="582" y="211.8857">GTP to call Go engines and manage games</text><path d="M522,319.6328 L532,319.6328 C547,319.6328 547,207.0391 562,207.0391 L572,207.0391 " fill="none" style="stroke:#181818;stroke-width:1.0;"/><rect fill="#F1F1F1" height="36.2969" rx="12.5" ry="12.5" style="stroke:#181818;stroke-width:1.5;" width="101" x="572" y="245.1875"/><text fill="#000000" font-family="sans-serif" font-size="14" lengthAdjust="spacing" textLength="77" x="582" y="268.1826">final_score</text><path d="M522,319.6328 L532,319.6328 C547,319.6328 547,263.3359 562,263.3359 L572,263.3359 " fill="none" style="stroke:#181818;stroke-width:1.0;"/><rect fill="#F1F1F1" height="36.2969" rx="12.5" ry="12.5" style="stroke:#181818;stroke-width:1.5;" width="135" x="572" y="301.4844"/><text fill="#000000" font-family="sans-serif" font-size="14" lengthAdjust="spacing" textLength="111" x="582" y="324.4795">final_status_list</text><path d="M522,319.6328 L532,319.6328 C547,319.6328 547,319.6328 562,319.6328 L572,319.6328 " fill="none" style="stroke:#181818;stroke-width:1.0;"/><rect fill="#F1F1F1" height="36.2969" rx="12.5" ry="12.5" style="stroke:#181818;stroke-width:1.5;" width="134" x="572" y="357.7813"/><text fill="#000000" font-family="sans-serif" font-size="14" lengthAdjust="spacing" textLength="114" x="582" y="380.7764">judge game end</text><path d="M522,319.6328 L532,319.6328 C547,319.6328 547,375.9297 562,375.9297 L572,375.9297 " fill="none" style="stroke:#181818;stroke-width:1.0;"/><rect fill="#F1F1F1" height="36.2969" rx="12.5" ry="12.5" style="stroke:#181818;stroke-width:1.5;" width="187" x="572" y="414.0781"/><text fill="#000000" font-family="sans-serif" font-size="14" lengthAdjust="spacing" textLength="167" x="582" y="437.0732">completely play games</text><path d="M522,319.6328 L532,319.6328 C547,319.6328 547,432.2266 562,432.2266 L572,432.2266 " fill="none" style="stroke:#181818;stroke-width:1.0;"/><rect fill="#F1F1F1" height="36.2969" rx="12.5" ry="12.5" style="stroke:#181818;stroke-width:1.5;" width="113" x="572" y="470.375"/><text fill="#000000" font-family="sans-serif" font-size="14" lengthAdjust="spacing" textLength="93" x="582" y="493.3701">load/save sgf</text><path d="M522,319.6328 L532,319.6328 C547,319.6328 547,488.5234 562,488.5234 L572,488.5234 " fill="none" style="stroke:#181818;stroke-width:1.0;"/><rect fill="#F1F1F1" height="36.2969" rx="12.5" ry="12.5" style="stroke:#181818;stroke-width:1.5;" width="110" x="572" y="526.6719"/><text fill="#000000" font-family="sans-serif" font-size="14" lengthAdjust="spacing" textLength="90" x="582" y="549.667">time setting</text><path d="M522,319.6328 L532,319.6328 C547,319.6328 547,544.8203 562,544.8203 L572,544.8203 " fill="none" style="stroke:#181818;stroke-width:1.0;"/><rect fill="#F1F1F1" height="36.2969" rx="12.5" ry="12.5" style="stroke:#181818;stroke-width:1.5;" width="85" x="572" y="582.9688"/><text fill="#000000" font-family="sans-serif" font-size="14" lengthAdjust="spacing" textLength="65" x="582" y="605.9639">handicap</text><path d="M522,319.6328 L532,319.6328 C547,319.6328 547,601.1172 562,601.1172 L572,601.1172 " fill="none" style="stroke:#181818;stroke-width:1.0;"/><path d="M307,1389.2734 L317,1389.2734 C332,1389.2734 332,319.6328 347,319.6328 L357,319.6328 " fill="none" style="stroke:#181818;stroke-width:1.0;"/><rect fill="#F1F1F1" height="36.2969" rx="12.5" ry="12.5" style="stroke:#181818;stroke-width:1.5;" width="185" x="357" y="695.5625"/><text fill="#000000" font-family="sans-serif" font-size="14" lengthAdjust="spacing" textLength="153" x="367" y="718.5576">features from GNUGo</text><rect fill="#F1F1F1" height="36.2969" rx="12.5" ry="12.5" style="stroke:#181818;stroke-width:1.5;" width="82" x="592" y="639.2656"/><text fill="#000000" font-family="sans-serif" font-size="14" lengthAdjust="spacing" textLength="62" x="602" y="662.2607">eval_eye</text><path d="M542,713.7109 L552,713.7109 C567,713.7109 567,657.4141 582,657.4141 L592,657.4141 " fill="none" style="stroke:#181818;stroke-width:1.0;"/><rect fill="#F1F1F1" height="36.2969" rx="12.5" ry="12.5" style="stroke:#181818;stroke-width:1.5;" width="188" x="592" y="695.5625"/><text fill="#000000" font-family="sans-serif" font-size="14" lengthAdjust="spacing" textLength="168" x="602" y="718.5576">owl_attack, owl_defend</text><path d="M542,713.7109 L552,713.7109 C567,713.7109 567,713.7109 582,713.7109 L592,713.7109 " fill="none" style="stroke:#181818;stroke-width:1.0;"/><rect fill="#F1F1F1" height="36.2969" rx="12.5" ry="12.5" style="stroke:#181818;stroke-width:1.5;" width="133" x="592" y="751.8594"/><text fill="#000000" font-family="sans-serif" font-size="14" lengthAdjust="spacing" textLength="113" x="602" y="774.8545">initial_influence</text><path d="M542,713.7109 L552,713.7109 C567,713.7109 567,770.0078 582,770.0078 L592,770.0078 " fill="none" style="stroke:#181818;stroke-width:1.0;"/><path d="M307,1389.2734 L317,1389.2734 C332,1389.2734 332,713.7109 347,713.7109 L357,713.7109 " fill="none" style="stroke:#181818;stroke-width:1.0;"/><rect fill="#F1F1F1" height="36.2969" rx="12.5" ry="12.5" style="stroke:#181818;stroke-width:1.5;" width="337" x="357" y="864.4531"/><text fill="#000000" font-family="sans-serif" font-size="14" lengthAdjust="spacing" textLength="317" x="367" y="887.4482">features from modern Go playing AI engines</text><rect fill="#F1F1F1" height="36.2969" rx="12.5" ry="12.5" style="stroke:#181818;stroke-width:1.5;" width="74" x="744" y="808.1563"/><text fill="#000000" font-family="sans-serif" font-size="14" lengthAdjust="spacing" textLength="54" x="754" y="831.1514">winrate</text><path d="M694,882.6016 L704,882.6016 C719,882.6016 719,826.3047 734,826.3047 L744,826.3047 " fill="none" style="stroke:#181818;stroke-width:1.0;"/><rect fill="#F1F1F1" height="36.2969" rx="12.5" ry="12.5" style="stroke:#181818;stroke-width:1.5;" width="201" x="744" y="864.4531"/><text fill="#000000" font-family="sans-serif" font-size="14" lengthAdjust="spacing" textLength="177" x="754" y="887.4482">order, principal variation</text><path d="M694,882.6016 L704,882.6016 C719,882.6016 719,882.6016 734,882.6016 L744,882.6016 " fill="none" style="stroke:#181818;stroke-width:1.0;"/><rect fill="#F1F1F1" height="36.2969" rx="12.5" ry="12.5" style="stroke:#181818;stroke-width:1.5;" width="57" x="744" y="920.75"/><text fill="#000000" font-family="sans-serif" font-size="14" lengthAdjust="spacing" textLength="37" x="754" y="943.7451">visits</text><path d="M694,882.6016 L704,882.6016 C719,882.6016 719,938.8984 734,938.8984 L744,938.8984 " fill="none" style="stroke:#181818;stroke-width:1.0;"/><path d="M307,1389.2734 L317,1389.2734 C332,1389.2734 332,882.6016 347,882.6016 L357,882.6016 " fill="none" style="stroke:#181818;stroke-width:1.0;"/><rect fill="#F1F1F1" height="36.2969" rx="12.5" ry="12.5" style="stroke:#181818;stroke-width:1.5;" width="180" x="357" y="1286.6797"/><text fill="#000000" font-family="sans-serif" font-size="14" lengthAdjust="spacing" textLength="156" x="367" y="1309.6748">features from KataGo</text><rect fill="#F1F1F1" height="36.2969" rx="12.5" ry="12.5" style="stroke:#181818;stroke-width:1.5;" width="116" x="587" y="977.0469"/><text fill="#000000" font-family="sans-serif" font-size="14" lengthAdjust="spacing" textLength="96" x="597" y="1000.042">ruleSet, komi</text><path d="M537,1304.8281 L547,1304.8281 C562,1304.8281 562,995.1953 577,995.1953 L587,995.1953 " fill="none" style="stroke:#181818;stroke-width:1.0;"/><rect fill="#F1F1F1" height="36.2969" rx="12.5" ry="12.5" style="stroke:#181818;stroke-width:1.5;" width="299" x="587" y="1033.3438"/><text fill="#000000" font-family="sans-serif" font-size="14" lengthAdjust="spacing" textLength="279" x="597" y="1056.3389">scoreLead, ownership, ownershipStdev</text><path d="M537,1304.8281 L547,1304.8281 C562,1304.8281 562,1051.4922 577,1051.4922 L587,1051.4922 " fill="none" style="stroke:#181818;stroke-width:1.0;"/><rect fill="#F1F1F1" height="36.2969" rx="12.5" ry="12.5" style="stroke:#181818;stroke-width:1.5;" width="182" x="587" y="1089.6406"/><text fill="#000000" font-family="sans-serif" font-size="14" lengthAdjust="spacing" textLength="158" x="597" y="1112.6357">boardSize (2x2,19x19)</text><path d="M537,1304.8281 L547,1304.8281 C562,1304.8281 562,1107.7891 577,1107.7891 L587,1107.7891 " fill="none" style="stroke:#181818;stroke-width:1.0;"/><rect fill="#F1F1F1" height="36.2969" rx="12.5" ry="12.5" style="stroke:#181818;stroke-width:1.5;" width="183" x="587" y="1145.9375"/><text fill="#000000" font-family="sans-serif" font-size="14" lengthAdjust="spacing" textLength="163" x="597" y="1168.9326">boardSize (2x2,29x29)?</text><path d="M537,1304.8281 L547,1304.8281 C562,1304.8281 562,1164.0859 577,1164.0859 L587,1164.0859 " fill="none" style="stroke:#181818;stroke-width:1.0;"/><rect fill="#F1F1F1" height="36.2969" rx="12.5" ry="12.5" style="stroke:#181818;stroke-width:1.5;" width="283" x="587" y="1202.2344"/><text fill="#000000" font-family="sans-serif" font-size="14" lengthAdjust="spacing" textLength="263" x="597" y="1225.2295">playoutDoublingAdvantage, dynamic</text><path d="M537,1304.8281 L547,1304.8281 C562,1304.8281 562,1220.3828 577,1220.3828 L587,1220.3828 " fill="none" style="stroke:#181818;stroke-width:1.0;"/><rect fill="#F1F1F1" height="36.2969" rx="12.5" ry="12.5" style="stroke:#181818;stroke-width:1.5;" width="127" x="587" y="1258.5313"/><text fill="#000000" font-family="sans-serif" font-size="14" lengthAdjust="spacing" textLength="107" x="597" y="1281.5264">wideRootNoise</text><path d="M537,1304.8281 L547,1304.8281 C562,1304.8281 562,1276.6797 577,1276.6797 L587,1276.6797 " fill="none" style="stroke:#181818;stroke-width:1.0;"/><rect fill="#F1F1F1" height="36.2969" rx="12.5" ry="12.5" style="stroke:#181818;stroke-width:1.5;" width="64" x="587" y="1371.125"/><text fill="#000000" font-family="sans-serif" font-size="14" lengthAdjust="spacing" textLength="44" x="597" y="1394.1201">resign</text><rect fill="#F1F1F1" height="36.2969" rx="12.5" ry="12.5" style="stroke:#181818;stroke-width:1.5;" width="135" x="701" y="1314.8281"/><text fill="#000000" font-family="sans-serif" font-size="14" lengthAdjust="spacing" textLength="115" x="711" y="1337.8232">resignThreshold</text><path d="M651,1389.2734 L661,1389.2734 C676,1389.2734 676,1332.9766 691,1332.9766 L701,1332.9766 " fill="none" style="stroke:#181818;stroke-width:1.0;"/><rect fill="#F1F1F1" height="36.2969" rx="12.5" ry="12.5" style="stroke:#181818;stroke-width:1.5;" width="207" x="701" y="1371.125"/><text fill="#000000" font-family="sans-serif" font-size="14" lengthAdjust="spacing" textLength="187" x="711" y="1394.1201">resignMinScoreDifference</text><path d="M651,1389.2734 L661,1389.2734 C676,1389.2734 676,1389.2734 691,1389.2734 L701,1389.2734 " fill="none" style="stroke:#181818;stroke-width:1.0;"/><rect fill="#F1F1F1" height="36.2969" rx="12.5" ry="12.5" style="stroke:#181818;stroke-width:1.5;" width="155" x="701" y="1427.4219"/><text fill="#000000" font-family="sans-serif" font-size="14" lengthAdjust="spacing" textLength="135" x="711" y="1450.417">resignConsecTurns</text><path d="M651,1389.2734 L661,1389.2734 C676,1389.2734 676,1445.5703 691,1445.5703 L701,1445.5703 " fill="none" style="stroke:#181818;stroke-width:1.0;"/><path d="M537,1304.8281 L547,1304.8281 C562,1304.8281 562,1389.2734 577,1389.2734 L587,1389.2734 " fill="none" style="stroke:#181818;stroke-width:1.0;"/><rect fill="#F1F1F1" height="36.2969" rx="12.5" ry="12.5" style="stroke:#181818;stroke-width:1.5;" width="186" x="587" y="1483.7188"/><text fill="#000000" font-family="sans-serif" font-size="14" lengthAdjust="spacing" textLength="166" x="597" y="1506.7139">kata raw nn SYMMETRY</text><path d="M537,1304.8281 L547,1304.8281 C562,1304.8281 562,1501.8672 577,1501.8672 L587,1501.8672 " fill="none" style="stroke:#181818;stroke-width:1.0;"/><rect fill="#F1F1F1" height="36.2969" rx="12.5" ry="12.5" style="stroke:#181818;stroke-width:1.5;" width="253" x="587" y="1540.0156"/><text fill="#000000" font-family="sans-serif" font-size="14" lengthAdjust="spacing" textLength="233" x="597" y="1563.0107">opening books on 7x7,8x8 board</text><path d="M537,1304.8281 L547,1304.8281 C562,1304.8281 562,1558.1641 577,1558.1641 L587,1558.1641 " fill="none" style="stroke:#181818;stroke-width:1.0;"/><rect fill="#F1F1F1" height="36.2969" rx="12.5" ry="12.5" style="stroke:#181818;stroke-width:1.5;" width="280" x="587" y="1596.3125"/><text fill="#000000" font-family="sans-serif" font-size="14" lengthAdjust="spacing" textLength="256" x="597" y="1619.3076">evalsgf, runownershiptests, analysis</text><path d="M537,1304.8281 L547,1304.8281 C562,1304.8281 562,1614.4609 577,1614.4609 L587,1614.4609 " fill="none" style="stroke:#181818;stroke-width:1.0;"/><path d="M307,1389.2734 L317,1389.2734 C332,1389.2734 332,1304.8281 347,1304.8281 L357,1304.8281 " fill="none" style="stroke:#181818;stroke-width:1.0;"/><rect fill="#F1F1F1" height="36.2969" rx="12.5" ry="12.5" style="stroke:#181818;stroke-width:1.5;" width="177" x="357" y="1680.7578"/><text fill="#000000" font-family="sans-serif" font-size="14" lengthAdjust="spacing" textLength="157" x="367" y="1703.7529">features from KaTrain</text><rect fill="#F1F1F1" height="36.2969" rx="12.5" ry="12.5" style="stroke:#181818;stroke-width:1.5;" width="87" x="584" y="1652.6094"/><text fill="#000000" font-family="sans-serif" font-size="14" lengthAdjust="spacing" textLength="67" x="594" y="1675.6045">weak bot</text><path d="M534,1698.9063 L544,1698.9063 C559,1698.9063 559,1670.7578 574,1670.7578 L584,1670.7578 " fill="none" style="stroke:#181818;stroke-width:1.0;"/><rect fill="#F1F1F1" height="36.2969" rx="12.5" ry="12.5" style="stroke:#181818;stroke-width:1.5;" width="89" x="584" y="1708.9063"/><text fill="#000000" font-family="sans-serif" font-size="14" lengthAdjust="spacing" textLength="65" x="594" y="1731.9014">style bot</text><path d="M534,1698.9063 L544,1698.9063 C559,1698.9063 559,1727.0547 574,1727.0547 L584,1727.0547 " fill="none" style="stroke:#181818;stroke-width:1.0;"/><path d="M307,1389.2734 L317,1389.2734 C332,1389.2734 332,1698.9063 347,1698.9063 L357,1698.9063 " fill="none" style="stroke:#181818;stroke-width:1.0;"/><rect fill="#F1F1F1" height="36.2969" rx="12.5" ry="12.5" style="stroke:#181818;stroke-width:1.5;" width="160" x="357" y="1765.2031"/><text fill="#000000" font-family="sans-serif" font-size="14" lengthAdjust="spacing" textLength="140" x="367" y="1788.1982">features from yishn</text><rect fill="#F1F1F1" height="36.2969" rx="12.5" ry="12.5" style="stroke:#181818;stroke-width:1.5;" width="83" x="567" y="1765.2031"/><text fill="#000000" font-family="sans-serif" font-size="14" lengthAdjust="spacing" textLength="59" x="577" y="1788.1982">KataJigo</text><path d="M517,1783.3516 L527,1783.3516 C542,1783.3516 542,1783.3516 557,1783.3516 L567,1783.3516 " fill="none" style="stroke:#181818;stroke-width:1.0;"/><path d="M307,1389.2734 L317,1389.2734 C332,1389.2734 332,1783.3516 347,1783.3516 L357,1783.3516 " fill="none" style="stroke:#181818;stroke-width:1.0;"/><rect fill="#F1F1F1" height="36.2969" rx="12.5" ry="12.5" style="stroke:#181818;stroke-width:1.5;" width="189" x="357" y="1821.5"/><text fill="#000000" font-family="sans-serif" font-size="14" lengthAdjust="spacing" textLength="169" x="367" y="1844.4951">features from waterfire</text><rect fill="#F1F1F1" height="36.2969" rx="12.5" ry="12.5" style="stroke:#181818;stroke-width:1.5;" width="192" x="596" y="1821.5"/><text fill="#000000" font-family="sans-serif" font-size="14" lengthAdjust="spacing" textLength="172" x="606" y="1844.4951">Kogo's Joseki Dictionary</text><path d="M546,1839.6484 L556,1839.6484 C571,1839.6484 571,1839.6484 586,1839.6484 L596,1839.6484 " fill="none" style="stroke:#181818;stroke-width:1.0;"/><path d="M307,1389.2734 L317,1389.2734 C332,1389.2734 332,1839.6484 347,1839.6484 L357,1839.6484 " fill="none" style="stroke:#181818;stroke-width:1.0;"/><rect fill="#F1F1F1" height="36.2969" rx="12.5" ry="12.5" style="stroke:#181818;stroke-width:1.5;" width="156" x="357" y="2300.0234"/><text fill="#000000" font-family="sans-serif" font-size="14" lengthAdjust="spacing" textLength="132" x="367" y="2323.0186">advanced features</text><rect fill="#F1F1F1" height="36.2969" rx="12.5" ry="12.5" style="stroke:#181818;stroke-width:1.5;" width="125" x="563" y="1877.7969"/><text fill="#000000" font-family="sans-serif" font-size="14" lengthAdjust="spacing" textLength="101" x="573" y="1900.792">CLI in webapp</text><path d="M513,2318.1719 L523,2318.1719 C538,2318.1719 538,1895.9453 553,1895.9453 L563,1895.9453 " fill="none" style="stroke:#181818;stroke-width:1.0;"/><rect fill="#F1F1F1" height="36.2969" rx="12.5" ry="12.5" style="stroke:#181818;stroke-width:1.5;" width="245" x="563" y="1934.0938"/><text fill="#000000" font-family="sans-serif" font-size="14" lengthAdjust="spacing" textLength="225" x="573" y="1957.0889">navigate, autoplay, guess mode</text><path d="M513,2318.1719 L523,2318.1719 C538,2318.1719 538,1952.2422 553,1952.2422 L563,1952.2422 " fill="none" style="stroke:#181818;stroke-width:1.0;"/><rect fill="#F1F1F1" height="36.2969" rx="12.5" ry="12.5" style="stroke:#181818;stroke-width:1.5;" width="125" x="563" y="1990.3906"/><text fill="#000000" font-family="sans-serif" font-size="14" lengthAdjust="spacing" textLength="105" x="573" y="2013.3857">exercise mode</text><path d="M513,2318.1719 L523,2318.1719 C538,2318.1719 538,2008.5391 553,2008.5391 L563,2008.5391 " fill="none" style="stroke:#181818;stroke-width:1.0;"/><rect fill="#F1F1F1" height="36.2969" rx="12.5" ry="12.5" style="stroke:#181818;stroke-width:1.5;" width="285" x="563" y="2046.6875"/><text fill="#000000" font-family="sans-serif" font-size="14" lengthAdjust="spacing" textLength="265" x="573" y="2069.6826">self adaptive scatterSize when zoom</text><path d="M513,2318.1719 L523,2318.1719 C538,2318.1719 538,2064.8359 553,2064.8359 L563,2064.8359 " fill="none" style="stroke:#181818;stroke-width:1.0;"/><rect fill="#F1F1F1" height="36.2969" rx="12.5" ry="12.5" style="stroke:#181818;stroke-width:1.5;" width="290" x="563" y="2102.9844"/><text fill="#000000" font-family="sans-serif" font-size="14" lengthAdjust="spacing" textLength="270" x="573" y="2125.9795">square board response to windowSize</text><path d="M513,2318.1719 L523,2318.1719 C538,2318.1719 538,2121.1328 553,2121.1328 L563,2121.1328 " fill="none" style="stroke:#181818;stroke-width:1.0;"/><rect fill="#F1F1F1" height="36.2969" rx="12.5" ry="12.5" style="stroke:#181818;stroke-width:1.5;" width="95" x="563" y="2159.2813"/><text fill="#000000" font-family="sans-serif" font-size="14" lengthAdjust="spacing" textLength="75" x="573" y="2182.2764">game tree</text><path d="M513,2318.1719 L523,2318.1719 C538,2318.1719 538,2177.4297 553,2177.4297 L563,2177.4297 " fill="none" style="stroke:#181818;stroke-width:1.0;"/><rect fill="#F1F1F1" height="36.2969" rx="12.5" ry="12.5" style="stroke:#181818;stroke-width:1.5;" width="125" x="563" y="2215.5781"/><text fill="#000000" font-family="sans-serif" font-size="14" lengthAdjust="spacing" textLength="105" x="573" y="2238.5732">games contain</text><path d="M513,2318.1719 L523,2318.1719 C538,2318.1719 538,2233.7266 553,2233.7266 L563,2233.7266 " fill="none" style="stroke:#181818;stroke-width:1.0;"/><rect fill="#F1F1F1" height="36.2969" rx="12.5" ry="12.5" style="stroke:#181818;stroke-width:1.5;" width="194" x="563" y="2271.875"/><text fill="#000000" font-family="sans-serif" font-size="14" lengthAdjust="spacing" textLength="174" x="573" y="2294.8701">multiple boards preview</text><path d="M513,2318.1719 L523,2318.1719 C538,2318.1719 538,2290.0234 553,2290.0234 L563,2290.0234 " fill="none" style="stroke:#181818;stroke-width:1.0;"/><rect fill="#F1F1F1" height="36.2969" rx="12.5" ry="12.5" style="stroke:#181818;stroke-width:1.5;" width="182" x="563" y="2328.1719"/><text fill="#000000" font-family="sans-serif" font-size="14" lengthAdjust="spacing" textLength="162" x="573" y="2351.167">load/save analyzed svg</text><path d="M513,2318.1719 L523,2318.1719 C538,2318.1719 538,2346.3203 553,2346.3203 L563,2346.3203 " fill="none" style="stroke:#181818;stroke-width:1.0;"/><rect fill="#F1F1F1" height="36.2969" rx="12.5" ry="12.5" style="stroke:#181818;stroke-width:1.5;" width="136" x="563" y="2384.4688"/><text fill="#000000" font-family="sans-serif" font-size="14" lengthAdjust="spacing" textLength="116" x="573" y="2407.4639">svg2sgf, sgf2svg</text><path d="M513,2318.1719 L523,2318.1719 C538,2318.1719 538,2402.6172 553,2402.6172 L563,2402.6172 " fill="none" style="stroke:#181818;stroke-width:1.0;"/><rect fill="#F1F1F1" height="36.2969" rx="12.5" ry="12.5" style="stroke:#181818;stroke-width:1.5;" width="165" x="563" y="2440.7656"/><text fill="#000000" font-family="sans-serif" font-size="14" lengthAdjust="spacing" textLength="145" x="573" y="2463.7607">Go games book, pdf</text><path d="M513,2318.1719 L523,2318.1719 C538,2318.1719 538,2458.9141 553,2458.9141 L563,2458.9141 " fill="none" style="stroke:#181818;stroke-width:1.0;"/><rect fill="#F1F1F1" height="36.2969" rx="12.5" ry="12.5" style="stroke:#181818;stroke-width:1.5;" width="185" x="563" y="2497.0625"/><text fill="#000000" font-family="sans-serif" font-size="14" lengthAdjust="spacing" textLength="165" x="573" y="2520.0576">fuzzy stone placement</text><path d="M513,2318.1719 L523,2318.1719 C538,2318.1719 538,2515.2109 553,2515.2109 L563,2515.2109 " fill="none" style="stroke:#181818;stroke-width:1.0;"/><rect fill="#F1F1F1" height="36.2969" rx="12.5" ry="12.5" style="stroke:#181818;stroke-width:1.5;" width="178" x="563" y="2553.3594"/><text fill="#000000" font-family="sans-serif" font-size="14" lengthAdjust="spacing" textLength="158" x="573" y="2576.3545">select data to analyze</text><path d="M513,2318.1719 L523,2318.1719 C538,2318.1719 538,2571.5078 553,2571.5078 L563,2571.5078 " fill="none" style="stroke:#181818;stroke-width:1.0;"/><rect fill="#F1F1F1" height="36.2969" rx="12.5" ry="12.5" style="stroke:#181818;stroke-width:1.5;" width="217" x="563" y="2609.6563"/><text fill="#000000" font-family="sans-serif" font-size="14" lengthAdjust="spacing" textLength="197" x="573" y="2632.6514">small to big KataGo models</text><path d="M513,2318.1719 L523,2318.1719 C538,2318.1719 538,2627.8047 553,2627.8047 L563,2627.8047 " fill="none" style="stroke:#181818;stroke-width:1.0;"/><rect fill="#F1F1F1" height="36.2969" rx="12.5" ry="12.5" style="stroke:#181818;stroke-width:1.5;" width="210" x="563" y="2665.9531"/><text fill="#000000" font-family="sans-serif" font-size="14" lengthAdjust="spacing" textLength="186" x="573" y="2688.9482">rank, rating, ladder match</text><path d="M513,2318.1719 L523,2318.1719 C538,2318.1719 538,2684.1016 553,2684.1016 L563,2684.1016 " fill="none" style="stroke:#181818;stroke-width:1.0;"/><rect fill="#F1F1F1" height="36.2969" rx="12.5" ry="12.5" style="stroke:#181818;stroke-width:1.5;" width="275" x="563" y="2722.25"/><text fill="#000000" font-family="sans-serif" font-size="14" lengthAdjust="spacing" textLength="255" x="573" y="2745.2451">opening book from Go community?</text><path d="M513,2318.1719 L523,2318.1719 C538,2318.1719 538,2740.3984 553,2740.3984 L563,2740.3984 " fill="none" style="stroke:#181818;stroke-width:1.0;"/><path d="M307,1389.2734 L317,1389.2734 C332,1389.2734 332,2318.1719 347,2318.1719 L357,2318.1719 " fill="none" style="stroke:#181818;stroke-width:1.0;"/><path d="M148,2008.5391 L158,2008.5391 C173,2008.5391 173,1389.2734 188,1389.2734 L198,1389.2734 " fill="none" style="stroke:#181818;stroke-width:1.0;"/><rect fill="#F1F1F1" height="36.2969" rx="12.5" ry="12.5" style="stroke:#181818;stroke-width:1.5;" width="135" x="198" y="3257.0703"/><text fill="#000000" font-family="sans-serif" font-size="14" lengthAdjust="spacing" textLength="115" x="208" y="3280.0654">Nonstandard Go</text><rect fill="#F1F1F1" height="36.2969" rx="12.5" ry="12.5" style="stroke:#181818;stroke-width:1.5;" width="67" x="383" y="2834.8438"/><text fill="#000000" font-family="sans-serif" font-size="14" lengthAdjust="spacing" textLength="47" x="393" y="2857.8389">Preset</text><rect fill="#F1F1F1" height="36.2969" rx="12.5" ry="12.5" style="stroke:#181818;stroke-width:1.5;" width="144" x="500" y="2778.5469"/><text fill="#000000" font-family="sans-serif" font-size="14" lengthAdjust="spacing" textLength="124" x="510" y="2801.542">Random Start Go</text><path d="M450,2852.9922 L460,2852.9922 C475,2852.9922 475,2796.6953 490,2796.6953 L500,2796.6953 " fill="none" style="stroke:#181818;stroke-width:1.0;"/><rect fill="#F1F1F1" height="36.2969" rx="12.5" ry="12.5" style="stroke:#181818;stroke-width:1.5;" width="101" x="500" y="2834.8438"/><text fill="#000000" font-family="sans-serif" font-size="14" lengthAdjust="spacing" textLength="77" x="510" y="2857.8389">ChessWhiz</text><path d="M450,2852.9922 L460,2852.9922 C475,2852.9922 475,2852.9922 490,2852.9922 L500,2852.9922 " fill="none" style="stroke:#181818;stroke-width:1.0;"/><rect fill="#F1F1F1" height="36.2969" rx="12.5" ry="12.5" style="stroke:#181818;stroke-width:1.5;" width="78" x="500" y="2891.1406"/><text fill="#000000" font-family="sans-serif" font-size="14" lengthAdjust="spacing" textLength="58" x="510" y="2914.1357">Dots Go</text><path d="M450,2852.9922 L460,2852.9922 C475,2852.9922 475,2909.2891 490,2909.2891 L500,2909.2891 " fill="none" style="stroke:#181818;stroke-width:1.0;"/><path d="M333,3275.2188 L343,3275.2188 C358,3275.2188 358,2852.9922 373,2852.9922 L383,2852.9922 " fill="none" style="stroke:#181818;stroke-width:1.0;"/><rect fill="#F1F1F1" height="36.2969" rx="12.5" ry="12.5" style="stroke:#181818;stroke-width:1.5;" width="82" x="383" y="3031.8828"/><text fill="#000000" font-family="sans-serif" font-size="14" lengthAdjust="spacing" textLength="62" x="393" y="3054.8779">Visibility</text><rect fill="#F1F1F1" height="36.2969" rx="12.5" ry="12.5" style="stroke:#181818;stroke-width:1.5;" width="115" x="515" y="2947.4375"/><text fill="#000000" font-family="sans-serif" font-size="14" lengthAdjust="spacing" textLength="95" x="525" y="2970.4326">One Color Go</text><path d="M465,3050.0313 L475,3050.0313 C490,3050.0313 490,2965.5859 505,2965.5859 L515,2965.5859 " fill="none" style="stroke:#181818;stroke-width:1.0;"/><rect fill="#F1F1F1" height="36.2969" rx="12.5" ry="12.5" style="stroke:#181818;stroke-width:1.5;" width="109" x="515" y="3003.7344"/><text fill="#000000" font-family="sans-serif" font-size="14" lengthAdjust="spacing" textLength="89" x="525" y="3026.7295">Phantom Go</text><path d="M465,3050.0313 L475,3050.0313 C490,3050.0313 490,3021.8828 505,3021.8828 L515,3021.8828 " fill="none" style="stroke:#181818;stroke-width:1.0;"/><rect fill="#F1F1F1" height="36.2969" rx="12.5" ry="12.5" style="stroke:#181818;stroke-width:1.5;" width="80" x="515" y="3060.0313"/><text fill="#000000" font-family="sans-serif" font-size="14" lengthAdjust="spacing" textLength="60" x="525" y="3083.0264">Blind Go</text><path d="M465,3050.0313 L475,3050.0313 C490,3050.0313 490,3078.1797 505,3078.1797 L515,3078.1797 " fill="none" style="stroke:#181818;stroke-width:1.0;"/><rect fill="#F1F1F1" height="36.2969" rx="12.5" ry="12.5" style="stroke:#181818;stroke-width:1.5;" width="123" x="515" y="3116.3281"/><text fill="#000000" font-family="sans-serif" font-size="14" lengthAdjust="spacing" textLength="103" x="525" y="3139.3232">Fog Of War Go</text><path d="M465,3050.0313 L475,3050.0313 C490,3050.0313 490,3134.4766 505,3134.4766 L515,3134.4766 " fill="none" style="stroke:#181818;stroke-width:1.0;"/><path d="M333,3275.2188 L343,3275.2188 C358,3275.2188 358,3050.0313 373,3050.0313 L383,3050.0313 " fill="none" style="stroke:#181818;stroke-width:1.0;"/><rect fill="#F1F1F1" height="36.2969" rx="12.5" ry="12.5" style="stroke:#181818;stroke-width:1.5;" width="133" x="383" y="3200.7734"/><text fill="#000000" font-family="sans-serif" font-size="14" lengthAdjust="spacing" textLength="113" x="393" y="3223.7686">Multiple Players</text><rect fill="#F1F1F1" height="36.2969" rx="12.5" ry="12.5" style="stroke:#181818;stroke-width:1.5;" width="121" x="566" y="3172.625"/><text fill="#000000" font-family="sans-serif" font-size="14" lengthAdjust="spacing" textLength="101" x="576" y="3195.6201">Multi Color Go</text><path d="M516,3218.9219 L526,3218.9219 C541,3218.9219 541,3190.7734 556,3190.7734 L566,3190.7734 " fill="none" style="stroke:#181818;stroke-width:1.0;"/><rect fill="#F1F1F1" height="36.2969" rx="12.5" ry="12.5" style="stroke:#181818;stroke-width:1.5;" width="71" x="566" y="3228.9219"/><text fill="#000000" font-family="sans-serif" font-size="14" lengthAdjust="spacing" textLength="51" x="576" y="3251.917">Pair Go</text><path d="M516,3218.9219 L526,3218.9219 C541,3218.9219 541,3247.0703 556,3247.0703 L566,3247.0703 " fill="none" style="stroke:#181818;stroke-width:1.0;"/><path d="M333,3275.2188 L343,3275.2188 C358,3275.2188 358,3218.9219 373,3218.9219 L383,3218.9219 " fill="none" style="stroke:#181818;stroke-width:1.0;"/><rect fill="#F1F1F1" height="36.2969" rx="12.5" ry="12.5" style="stroke:#181818;stroke-width:1.5;" width="160" x="383" y="3341.5156"/><text fill="#000000" font-family="sans-serif" font-size="14" lengthAdjust="spacing" textLength="140" x="393" y="3364.5107">Moves &amp;&amp; Positions</text><rect fill="#F1F1F1" height="36.2969" rx="12.5" ry="12.5" style="stroke:#181818;stroke-width:1.5;" width="95" x="593" y="3285.2188"/><text fill="#000000" font-family="sans-serif" font-size="14" lengthAdjust="spacing" textLength="75" x="603" y="3308.2139">Double Go</text><path d="M543,3359.6641 L553,3359.6641 C568,3359.6641 568,3303.3672 583,3303.3672 L593,3303.3672 " fill="none" style="stroke:#181818;stroke-width:1.0;"/><rect fill="#F1F1F1" height="36.2969" rx="12.5" ry="12.5" style="stroke:#181818;stroke-width:1.5;" width="122" x="593" y="3341.5156"/><text fill="#000000" font-family="sans-serif" font-size="14" lengthAdjust="spacing" textLength="102" x="603" y="3364.5107">Quantum Go 1</text><path d="M543,3359.6641 L553,3359.6641 C568,3359.6641 568,3359.6641 583,3359.6641 L593,3359.6641 " fill="none" style="stroke:#181818;stroke-width:1.0;"/><rect fill="#F1F1F1" height="36.2969" rx="12.5" ry="12.5" style="stroke:#181818;stroke-width:1.5;" width="98" x="593" y="3397.8125"/><text fill="#000000" font-family="sans-serif" font-size="14" lengthAdjust="spacing" textLength="78" x="603" y="3420.8076">Magnet Go</text><path d="M543,3359.6641 L553,3359.6641 C568,3359.6641 568,3415.9609 583,3415.9609 L593,3415.9609 " fill="none" style="stroke:#181818;stroke-width:1.0;"/><path d="M333,3275.2188 L343,3275.2188 C358,3275.2188 358,3359.6641 373,3359.6641 L383,3359.6641 " fill="none" style="stroke:#181818;stroke-width:1.0;"/><rect fill="#F1F1F1" height="36.2969" rx="12.5" ry="12.5" style="stroke:#181818;stroke-width:1.5;" width="62" x="383" y="3594.8516"/><text fill="#000000" font-family="sans-serif" font-size="14" lengthAdjust="spacing" textLength="42" x="393" y="3617.8467">Other</text><rect fill="#F1F1F1" height="36.2969" rx="12.5" ry="12.5" style="stroke:#181818;stroke-width:1.5;" width="230" x="495" y="3454.1094"/><text fill="#000000" font-family="sans-serif" font-size="14" lengthAdjust="spacing" textLength="210" x="505" y="3477.1045">reuse captures by each other</text><path d="M445,3613 L455,3613 C470,3613 470,3472.2578 485,3472.2578 L495,3472.2578 " fill="none" style="stroke:#181818;stroke-width:1.0;"/><rect fill="#F1F1F1" height="36.2969" rx="12.5" ry="12.5" style="stroke:#181818;stroke-width:1.5;" width="138" x="495" y="3510.4063"/><text fill="#000000" font-family="sans-serif" font-size="14" lengthAdjust="spacing" textLength="118" x="505" y="3533.4014">First Capture Go</text><path d="M445,3613 L455,3613 C470,3613 470,3528.5547 485,3528.5547 L495,3528.5547 " fill="none" style="stroke:#181818;stroke-width:1.0;"/><rect fill="#F1F1F1" height="36.2969" rx="12.5" ry="12.5" style="stroke:#181818;stroke-width:1.5;" width="127" x="495" y="3566.7031"/><text fill="#000000" font-family="sans-serif" font-size="14" lengthAdjust="spacing" textLength="107" x="505" y="3589.6982">Topological Go</text><path d="M445,3613 L455,3613 C470,3613 470,3584.8516 485,3584.8516 L495,3584.8516 " fill="none" style="stroke:#181818;stroke-width:1.0;"/><rect fill="#F1F1F1" height="36.2969" rx="12.5" ry="12.5" style="stroke:#181818;stroke-width:1.5;" width="102" x="495" y="3623"/><text fill="#000000" font-family="sans-serif" font-size="14" lengthAdjust="spacing" textLength="82" x="505" y="3645.9951">Toroidal Go</text><path d="M445,3613 L455,3613 C470,3613 470,3641.1484 485,3641.1484 L495,3641.1484 " fill="none" style="stroke:#181818;stroke-width:1.0;"/><rect fill="#F1F1F1" height="36.2969" rx="12.5" ry="12.5" style="stroke:#181818;stroke-width:1.5;" width="105" x="495" y="3679.2969"/><text fill="#000000" font-family="sans-serif" font-size="14" lengthAdjust="spacing" textLength="85" x="505" y="3702.292">Neurotic Go</text><path d="M445,3613 L455,3613 C470,3613 470,3697.4453 485,3697.4453 L495,3697.4453 " fill="none" style="stroke:#181818;stroke-width:1.0;"/><rect fill="#F1F1F1" height="36.2969" rx="12.5" ry="12.5" style="stroke:#181818;stroke-width:1.5;" width="207" x="495" y="3735.5938"/><text fill="#000000" font-family="sans-serif" font-size="14" lengthAdjust="spacing" textLength="187" x="505" y="3758.5889">Alice in Wonderland mode</text><path d="M445,3613 L455,3613 C470,3613 470,3753.7422 485,3753.7422 L495,3753.7422 " fill="none" style="stroke:#181818;stroke-width:1.0;"/><path d="M333,3275.2188 L343,3275.2188 C358,3275.2188 358,3613 373,3613 L383,3613 " fill="none" style="stroke:#181818;stroke-width:1.0;"/><path d="M148,2008.5391 L158,2008.5391 C173,2008.5391 173,3275.2188 188,3275.2188 L198,3275.2188 " fill="none" style="stroke:#181818;stroke-width:1.0;"/><rect fill="#F1F1F1" height="36.2969" rx="12.5" ry="12.5" style="stroke:#181818;stroke-width:1.5;" width="72" x="198" y="3876.3359"/><text fill="#000000" font-family="sans-serif" font-size="14" lengthAdjust="spacing" textLength="52" x="208" y="3899.3311">Non Go</text><rect fill="#F1F1F1" height="36.2969" rx="12.5" ry="12.5" style="stroke:#181818;stroke-width:1.5;" width="123" x="320" y="3848.1875"/><text fill="#000000" font-family="sans-serif" font-size="14" lengthAdjust="spacing" textLength="103" x="330" y="3871.1826">not merely Go</text><rect fill="#F1F1F1" height="36.2969" rx="12.5" ry="12.5" style="stroke:#181818;stroke-width:1.5;" width="114" x="493" y="3791.8906"/><text fill="#000000" font-family="sans-serif" font-size="14" lengthAdjust="spacing" textLength="94" x="503" y="3814.8857">Five In A Row</text><path d="M443,3866.3359 L453,3866.3359 C468,3866.3359 468,3810.0391 483,3810.0391 L493,3810.0391 " fill="none" style="stroke:#181818;stroke-width:1.0;"/><rect fill="#F1F1F1" height="36.2969" rx="12.5" ry="12.5" style="stroke:#181818;stroke-width:1.5;" width="87" x="493" y="3848.1875"/><text fill="#000000" font-family="sans-serif" font-size="14" lengthAdjust="spacing" textLength="67" x="503" y="3871.1826">Checkers</text><path d="M443,3866.3359 L453,3866.3359 C468,3866.3359 468,3866.3359 483,3866.3359 L493,3866.3359 " fill="none" style="stroke:#181818;stroke-width:1.0;"/><rect fill="#F1F1F1" height="36.2969" rx="12.5" ry="12.5" style="stroke:#181818;stroke-width:1.5;" width="73" x="493" y="3904.4844"/><text fill="#000000" font-family="sans-serif" font-size="14" lengthAdjust="spacing" textLength="53" x="503" y="3927.4795">Reversi</text><path d="M443,3866.3359 L453,3866.3359 C468,3866.3359 468,3922.6328 483,3922.6328 L493,3922.6328 " fill="none" style="stroke:#181818;stroke-width:1.0;"/><path d="M270,3894.4844 L280,3894.4844 C295,3894.4844 295,3866.3359 310,3866.3359 L320,3866.3359 " fill="none" style="stroke:#181818;stroke-width:1.0;"/><rect fill="#F1F1F1" height="36.2969" rx="12.5" ry="12.5" style="stroke:#181818;stroke-width:1.5;" width="251" x="320" y="3960.7813"/><text fill="#000000" font-family="sans-serif" font-size="14" lengthAdjust="spacing" textLength="231" x="330" y="3983.7764">not merely Go board and stones</text><rect fill="#F1F1F1" height="36.2969" rx="12.5" ry="12.5" style="stroke:#181818;stroke-width:1.5;" width="228" x="621" y="3960.7813"/><text fill="#000000" font-family="sans-serif" font-size="14" lengthAdjust="spacing" textLength="208" x="631" y="3983.7764">Chess with Stockfish and Lc0</text><path d="M571,3978.9297 L581,3978.9297 C596,3978.9297 596,3978.9297 611,3978.9297 L621,3978.9297 " fill="none" style="stroke:#181818;stroke-width:1.0;"/><path d="M270,3894.4844 L280,3894.4844 C295,3894.4844 295,3978.9297 310,3978.9297 L320,3978.9297 " fill="none" style="stroke:#181818;stroke-width:1.0;"/><path d="M148,2008.5391 L158,2008.5391 C173,2008.5391 173,3894.4844 188,3894.4844 L198,3894.4844 " fill="none" style="stroke:#181818;stroke-width:1.0;"/><!--MD5=[6322ec570319fbe1c171472e2372205b]
@startmindmap
* VastGo Features
 * Standard Go
  * basic game features
   * static Go board 19x19
   * mouse click to play stones
   * dynamic Go board
   * GTP to call Go engines and manage games
   * final_score 
   * final_status_list 
   * judge game end
   * completely play games
   * load/save sgf
   * time setting
   * handicap
  * features from GNUGo   
   * eval_eye
   * owl_attack, owl_defend
   * initial_influence
  * features from modern Go playing AI engines
   * winrate
   * order, principal variation 
   * visits
  * features from KataGo 
   * ruleSet, komi
   * scoreLead, ownership, ownershipStdev
   * boardSize (2x2,19x19) 
   * boardSize (2x2,29x29)?
   * playoutDoublingAdvantage, dynamic
   * wideRootNoise
   * resign
    * resignThreshold
    * resignMinScoreDifference
    * resignConsecTurns
   * kata raw nn SYMMETRY
   * opening books on 7x7,8x8 board
   * evalsgf, runownershiptests, analysis 
  * features from KaTrain
   * weak bot
   * style bot 
  * features from yishn
   * KataJigo 
  * features from waterfire
   * Kogo's Joseki Dictionary
  * advanced features 
   * CLI in webapp 
   * navigate, autoplay, guess mode
   * exercise mode
   * self adaptive scatterSize when zoom
   * square board response to windowSize
   * game tree
   * games contain
   * multiple boards preview
   * load/save analyzed svg
   * svg2sgf, sgf2svg
   * Go games book, pdf
   * fuzzy stone placement
   * select data to analyze
   * small to big KataGo models
   * rank, rating, ladder match 
   * opening book from Go community?
 * Nonstandard Go
  * Preset
   * Random Start Go
   * ChessWhiz 
   * Dots Go
  * Visibility
   * One Color Go
   * Phantom Go
   * Blind Go
   * Fog Of War Go
  * Multiple Players
   * Multi Color Go
   * Pair Go
  * Moves_Positions
   * Double Go
   * Quantum Go 1
   * Magnet Go
  * Other
   * reuse captures by each other
   * First Capture Go
   * Topological Go
   * Toroidal Go
   * Neurotic Go
   * Alice in Wonderland mode
 * Non Go
  * not merely Go
   * Five In A Row
   * Checkers
   * Reversi
  * not merely Go board and stones
   * Chess with Stockfish and Lc0
@endmindmap

PlantUML version 1.2022.7beta2(Unknown compile time)
(GPL source distribution)
Java Runtime: Java(TM) SE Runtime Environment
JVM: Java HotSpot(TM) 64-Bit Server VM
Default Encoding: UTF-8
Language: en
Country: US
--></g></svg>