<?xml version="1.0" encoding="UTF-8" standalone="no"?><svg xmlns="http://www.w3.org/2000/svg" xmlns:xlink="http://www.w3.org/1999/xlink" contentStyleType="text/css" height="814px" preserveAspectRatio="none" style="width:1634px;height:814px;background:#FFFFFF;" version="1.1" viewBox="0 0 1634 814" width="1634px" zoomAndPan="magnify"><defs/><g><line style="stroke:#181818;stroke-width:1.5;" x1="83.5" x2="83.5" y1="63.9688" y2="83.9688"/><rect fill="#F1F1F1" height="33.9688" style="stroke:#181818;stroke-width:1.5;" width="147" x="10" y="83.9688"/><text fill="#000000" font-family="sans-serif" font-size="12" lengthAdjust="spacing" textLength="127" x="20" y="105.1074">2203 0.0.1 Just Work</text><line style="stroke:#181818;stroke-width:1.5;" x1="83.5" x2="93.5" y1="149.9219" y2="149.9219"/><rect fill="#F1F1F1" height="33.9688" style="stroke:#181818;stroke-width:1.5;" width="99" x="93.5" y="132.9375"/><text fill="#000000" font-family="sans-serif" font-size="12" lengthAdjust="spacing" textLength="79" x="103.5" y="154.0762">move stones</text><line style="stroke:#181818;stroke-width:1.5;" x1="83.5" x2="93.5" y1="198.8906" y2="198.8906"/><rect fill="#F1F1F1" height="33.9688" style="stroke:#181818;stroke-width:1.5;" width="110" x="93.5" y="181.9063"/><text fill="#000000" font-family="sans-serif" font-size="12" lengthAdjust="spacing" textLength="90" x="103.5" y="203.0449">auto take turns</text><line style="stroke:#181818;stroke-width:1.5;" x1="83.5" x2="93.5" y1="247.8594" y2="247.8594"/><rect fill="#F1F1F1" height="33.9688" style="stroke:#181818;stroke-width:1.5;" width="127" x="93.5" y="230.875"/><text fill="#000000" font-family="sans-serif" font-size="12" lengthAdjust="spacing" textLength="107" x="103.5" y="252.0137">report final_score</text><line style="stroke:#181818;stroke-width:1.5;" x1="83.5" x2="93.5" y1="296.8281" y2="296.8281"/><rect fill="#F1F1F1" height="33.9688" style="stroke:#181818;stroke-width:1.5;" width="102" x="93.5" y="279.8438"/><text fill="#000000" font-family="sans-serif" font-size="12" lengthAdjust="spacing" textLength="82" x="103.5" y="300.9824">One Color Go</text><line style="stroke:#181818;stroke-width:1.5;" x1="83.5" x2="93.5" y1="345.7969" y2="345.7969"/><rect fill="#F1F1F1" height="33.9688" style="stroke:#181818;stroke-width:1.5;" width="91" x="93.5" y="328.8125"/><text fill="#000000" font-family="sans-serif" font-size="12" lengthAdjust="spacing" textLength="71" x="103.5" y="349.9512">Phantom Go</text><line style="stroke:#181818;stroke-width:1.5;" x1="83.5" x2="93.5" y1="394.7656" y2="394.7656"/><rect fill="#F1F1F1" height="33.9688" style="stroke:#181818;stroke-width:1.5;" width="70" x="93.5" y="377.7813"/><text fill="#000000" font-family="sans-serif" font-size="12" lengthAdjust="spacing" textLength="50" x="103.5" y="398.9199">Blind Go</text><line style="stroke:#181818;stroke-width:1.5;" x1="83.5" x2="93.5" y1="443.7344" y2="443.7344"/><rect fill="#F1F1F1" height="33.9688" style="stroke:#181818;stroke-width:1.5;" width="89" x="93.5" y="426.75"/><text fill="#000000" font-family="sans-serif" font-size="12" lengthAdjust="spacing" textLength="65" x="103.5" y="447.8887">Magnet Go</text><line style="stroke:#181818;stroke-width:1.5;" x1="83.5" x2="83.5" y1="117.9375" y2="443.7344"/><line style="stroke:#181818;stroke-width:1.5;" x1="278.5" x2="278.5" y1="63.9688" y2="83.9688"/><rect fill="#F1F1F1" height="33.9688" style="stroke:#181818;stroke-width:1.5;" width="76" x="240.5" y="83.9688"/><text fill="#000000" font-family="sans-serif" font-size="12" lengthAdjust="spacing" textLength="56" x="250.5" y="105.1074">0.0.2 GTP</text><line style="stroke:#181818;stroke-width:1.5;" x1="278.5" x2="288.5" y1="149.9219" y2="149.9219"/><rect fill="#F1F1F1" height="33.9688" style="stroke:#181818;stroke-width:1.5;" width="121" x="288.5" y="132.9375"/><text fill="#000000" font-family="sans-serif" font-size="12" lengthAdjust="spacing" textLength="101" x="298.5" y="154.0762">multiple platform</text><line style="stroke:#181818;stroke-width:1.5;" x1="278.5" x2="288.5" y1="198.8906" y2="198.8906"/><rect fill="#F1F1F1" height="33.9688" style="stroke:#181818;stroke-width:1.5;" width="91" x="288.5" y="181.9063"/><text fill="#000000" font-family="sans-serif" font-size="12" lengthAdjust="spacing" textLength="71" x="298.5" y="203.0449">multiple bot</text><line style="stroke:#181818;stroke-width:1.5;" x1="278.5" x2="288.5" y1="247.8594" y2="247.8594"/><rect fill="#F1F1F1" height="33.9688" style="stroke:#181818;stroke-width:1.5;" width="152" x="288.5" y="230.875"/><text fill="#000000" font-family="sans-serif" font-size="12" lengthAdjust="spacing" textLength="132" x="298.5" y="252.0137">universal GTP CLI (API)</text><line style="stroke:#181818;stroke-width:1.5;" x1="278.5" x2="288.5" y1="296.8281" y2="296.8281"/><rect fill="#F1F1F1" height="33.9688" style="stroke:#181818;stroke-width:1.5;" width="124" x="288.5" y="279.8438"/><text fill="#000000" font-family="sans-serif" font-size="12" lengthAdjust="spacing" textLength="104" x="298.5" y="300.9824">bots' status table</text><line style="stroke:#181818;stroke-width:1.5;" x1="278.5" x2="288.5" y1="345.7969" y2="345.7969"/><rect fill="#F1F1F1" height="33.9688" style="stroke:#181818;stroke-width:1.5;" width="191" x="288.5" y="328.8125"/><text fill="#000000" font-family="sans-serif" font-size="12" lengthAdjust="spacing" textLength="171" x="298.5" y="349.9512">CLI/WebApp double modes?</text><line style="stroke:#181818;stroke-width:1.5;" x1="278.5" x2="288.5" y1="394.7656" y2="394.7656"/><rect fill="#F1F1F1" height="33.9688" style="stroke:#181818;stroke-width:1.5;" width="81" x="288.5" y="377.7813"/><text fill="#000000" font-family="sans-serif" font-size="12" lengthAdjust="spacing" textLength="61" x="298.5" y="398.9199">handicaps</text><line style="stroke:#181818;stroke-width:1.5;" x1="278.5" x2="288.5" y1="443.7344" y2="443.7344"/><rect fill="#F1F1F1" height="33.9688" style="stroke:#181818;stroke-width:1.5;" width="69" x="288.5" y="426.75"/><text fill="#000000" font-family="sans-serif" font-size="12" lengthAdjust="spacing" textLength="49" x="298.5" y="447.8887">Dots Go</text><line style="stroke:#181818;stroke-width:1.5;" x1="278.5" x2="288.5" y1="492.7031" y2="492.7031"/><rect fill="#F1F1F1" height="33.9688" style="stroke:#181818;stroke-width:1.5;" width="111" x="288.5" y="475.7188"/><text fill="#000000" font-family="sans-serif" font-size="12" lengthAdjust="spacing" textLength="91" x="298.5" y="496.8574">Chess Whiz Go</text><line style="stroke:#181818;stroke-width:1.5;" x1="278.5" x2="288.5" y1="541.6719" y2="541.6719"/><rect fill="#F1F1F1" height="33.9688" style="stroke:#181818;stroke-width:1.5;" width="121" x="288.5" y="524.6875"/><text fill="#000000" font-family="sans-serif" font-size="12" lengthAdjust="spacing" textLength="101" x="298.5" y="545.8262">Random Start Go</text><line style="stroke:#181818;stroke-width:1.5;" x1="278.5" x2="288.5" y1="590.6406" y2="590.6406"/><rect fill="#F1F1F1" height="33.9688" style="stroke:#181818;stroke-width:1.5;" width="84" x="288.5" y="573.6563"/><text fill="#000000" font-family="sans-serif" font-size="12" lengthAdjust="spacing" textLength="64" x="298.5" y="594.7949">Double Go</text><line style="stroke:#181818;stroke-width:1.5;" x1="278.5" x2="278.5" y1="117.9375" y2="590.6406"/><line style="stroke:#181818;stroke-width:1.5;" x1="538.5" x2="538.5" y1="63.9688" y2="83.9688"/><rect fill="#F1F1F1" height="33.9688" style="stroke:#181818;stroke-width:1.5;" width="78" x="499.5" y="83.9688"/><text fill="#000000" font-family="sans-serif" font-size="12" lengthAdjust="spacing" textLength="58" x="509.5" y="105.1074">0.0.3 SGF</text><line style="stroke:#181818;stroke-width:1.5;" x1="538.5" x2="548.5" y1="149.9219" y2="149.9219"/><rect fill="#F1F1F1" height="33.9688" style="stroke:#181818;stroke-width:1.5;" width="82" x="548.5" y="132.9375"/><text fill="#000000" font-family="sans-serif" font-size="12" lengthAdjust="spacing" textLength="62" x="558.5" y="154.0762">edit mode</text><line style="stroke:#181818;stroke-width:1.5;" x1="538.5" x2="548.5" y1="198.8906" y2="198.8906"/><rect fill="#F1F1F1" height="33.9688" style="stroke:#181818;stroke-width:1.5;" width="181" x="548.5" y="181.9063"/><text fill="#000000" font-family="sans-serif" font-size="12" lengthAdjust="spacing" textLength="161" x="558.5" y="203.0449">navigator(position_history)</text><line style="stroke:#181818;stroke-width:1.5;" x1="538.5" x2="548.5" y1="247.8594" y2="247.8594"/><rect fill="#F1F1F1" height="33.9688" style="stroke:#181818;stroke-width:1.5;" width="73" x="548.5" y="230.875"/><text fill="#000000" font-family="sans-serif" font-size="12" lengthAdjust="spacing" textLength="53" x="558.5" y="252.0137">captures</text><line style="stroke:#181818;stroke-width:1.5;" x1="538.5" x2="548.5" y1="296.8281" y2="296.8281"/><rect fill="#F1F1F1" height="33.9688" style="stroke:#181818;stroke-width:1.5;" width="145" x="548.5" y="279.8438"/><text fill="#000000" font-family="sans-serif" font-size="12" lengthAdjust="spacing" textLength="121" x="558.5" y="300.9824">printsgf and loadsgf</text><line style="stroke:#181818;stroke-width:1.5;" x1="621" x2="631" y1="345.7969" y2="345.7969"/><rect fill="#F1F1F1" height="33.9688" style="stroke:#181818;stroke-width:1.5;" width="101" x="631" y="328.8125"/><text fill="#000000" font-family="sans-serif" font-size="12" lengthAdjust="spacing" textLength="81" x="641" y="349.9512">move_history</text><line style="stroke:#181818;stroke-width:1.5;" x1="621" x2="631" y1="394.7656" y2="394.7656"/><rect fill="#F1F1F1" height="33.9688" style="stroke:#181818;stroke-width:1.5;" width="125" x="631" y="377.7813"/><text fill="#000000" font-family="sans-serif" font-size="12" lengthAdjust="spacing" textLength="105" x="641" y="398.9199">SBKV for win rate</text><line style="stroke:#181818;stroke-width:1.5;" x1="621" x2="631" y1="443.7344" y2="443.7344"/><rect fill="#F1F1F1" height="33.9688" style="stroke:#181818;stroke-width:1.5;" width="145" x="631" y="426.75"/><text fill="#000000" font-family="sans-serif" font-size="12" lengthAdjust="spacing" textLength="125" x="641" y="447.8887">OGSC for score lead</text><line style="stroke:#181818;stroke-width:1.5;" x1="621" x2="631" y1="492.7031" y2="492.7031"/><rect fill="#F1F1F1" height="33.9688" style="stroke:#181818;stroke-width:1.5;" width="204" x="631" y="475.7188"/><text fill="#000000" font-family="sans-serif" font-size="12" lengthAdjust="spacing" textLength="184" x="641" y="496.8574">OGS,Fox,Yike,Golaxy,KaTrain...</text><line style="stroke:#181818;stroke-width:1.5;" x1="621" x2="621" y1="313.8125" y2="492.7031"/><line style="stroke:#181818;stroke-width:1.5;" x1="538.5" x2="548.5" y1="541.6719" y2="541.6719"/><rect fill="#F1F1F1" height="33.9688" style="stroke:#181818;stroke-width:1.5;" width="108" x="548.5" y="524.6875"/><text fill="#000000" font-family="sans-serif" font-size="12" lengthAdjust="spacing" textLength="88" x="558.5" y="545.8262">Fog of War Go</text><line style="stroke:#181818;stroke-width:1.5;" x1="602.5" x2="612.5" y1="590.6406" y2="590.6406"/><rect fill="#F1F1F1" height="33.9688" style="stroke:#181818;stroke-width:1.5;" width="87" x="612.5" y="573.6563"/><text fill="#000000" font-family="sans-serif" font-size="12" lengthAdjust="spacing" textLength="63" x="622.5" y="594.7949">ownership</text><line style="stroke:#181818;stroke-width:1.5;" x1="602.5" x2="612.5" y1="639.6094" y2="639.6094"/><rect fill="#F1F1F1" height="33.9688" style="stroke:#181818;stroke-width:1.5;" width="109" x="612.5" y="622.625"/><text fill="#000000" font-family="sans-serif" font-size="12" lengthAdjust="spacing" textLength="89" x="622.5" y="643.7637">final_status_list</text><line style="stroke:#181818;stroke-width:1.5;" x1="602.5" x2="602.5" y1="558.6563" y2="639.6094"/><line style="stroke:#181818;stroke-width:1.5;" x1="538.5" x2="548.5" y1="688.5781" y2="688.5781"/><rect fill="#F1F1F1" height="33.9688" style="stroke:#181818;stroke-width:1.5;" width="118" x="548.5" y="671.5938"/><text fill="#000000" font-family="sans-serif" font-size="12" lengthAdjust="spacing" textLength="98" x="558.5" y="692.7324">First Capture Go</text><line style="stroke:#181818;stroke-width:1.5;" x1="538.5" x2="548.5" y1="737.5469" y2="737.5469"/><rect fill="#F1F1F1" height="33.9688" style="stroke:#181818;stroke-width:1.5;" width="62" x="548.5" y="720.5625"/><text fill="#000000" font-family="sans-serif" font-size="12" lengthAdjust="spacing" textLength="42" x="558.5" y="741.7012">Pair Go</text><line style="stroke:#181818;stroke-width:1.5;" x1="538.5" x2="548.5" y1="786.5156" y2="786.5156"/><rect fill="#F1F1F1" height="33.9688" style="stroke:#181818;stroke-width:1.5;" width="104" x="548.5" y="769.5313"/><text fill="#000000" font-family="sans-serif" font-size="12" lengthAdjust="spacing" textLength="84" x="558.5" y="790.6699">Multi Color Go</text><line style="stroke:#181818;stroke-width:1.5;" x1="538.5" x2="538.5" y1="117.9375" y2="786.5156"/><line style="stroke:#181818;stroke-width:1.5;" x1="892.5" x2="892.5" y1="63.9688" y2="83.9688"/><rect fill="#F1F1F1" height="33.9688" style="stroke:#181818;stroke-width:1.5;" width="75" x="855" y="83.9688"/><text fill="#000000" font-family="sans-serif" font-size="12" lengthAdjust="spacing" textLength="55" x="865" y="105.1074">0.0.4 Plot</text><line style="stroke:#181818;stroke-width:1.5;" x1="892.5" x2="902.5" y1="149.9219" y2="149.9219"/><rect fill="#F1F1F1" height="33.9688" style="stroke:#181818;stroke-width:1.5;" width="100" x="902.5" y="132.9375"/><text fill="#000000" font-family="sans-serif" font-size="12" lengthAdjust="spacing" textLength="80" x="912.5" y="154.0762">review mode</text><line style="stroke:#181818;stroke-width:1.5;" x1="892.5" x2="902.5" y1="198.8906" y2="198.8906"/><rect fill="#F1F1F1" height="33.9688" style="stroke:#181818;stroke-width:1.5;" width="189" x="902.5" y="181.9063"/><text fill="#000000" font-family="sans-serif" font-size="12" lengthAdjust="spacing" textLength="169" x="912.5" y="203.0449">playtime data to first review</text><line style="stroke:#181818;stroke-width:1.5;" x1="892.5" x2="902.5" y1="247.8594" y2="247.8594"/><rect fill="#F1F1F1" height="33.9688" style="stroke:#181818;stroke-width:1.5;" width="192" x="902.5" y="230.875"/><text fill="#000000" font-family="sans-serif" font-size="12" lengthAdjust="spacing" textLength="172" x="912.5" y="252.0137">SBKV OGSC gametree curve</text><line style="stroke:#181818;stroke-width:1.5;" x1="892.5" x2="902.5" y1="296.8281" y2="296.8281"/><rect fill="#F1F1F1" height="33.9688" style="stroke:#181818;stroke-width:1.5;" width="56" x="902.5" y="279.8438"/><text fill="#000000" font-family="sans-serif" font-size="12" lengthAdjust="spacing" textLength="36" x="912.5" y="300.9824">spline</text><line style="stroke:#181818;stroke-width:1.5;" x1="892.5" x2="902.5" y1="345.7969" y2="345.7969"/><rect fill="#F1F1F1" height="33.9688" style="stroke:#181818;stroke-width:1.5;" width="40" x="902.5" y="328.8125"/><text fill="#000000" font-family="sans-serif" font-size="12" lengthAdjust="spacing" textLength="20" x="912.5" y="349.9512">f' f"</text><line style="stroke:#181818;stroke-width:1.5;" x1="892.5" x2="902.5" y1="394.7656" y2="394.7656"/><rect fill="#F1F1F1" height="33.9688" style="stroke:#181818;stroke-width:1.5;" width="104" x="902.5" y="377.7813"/><text fill="#000000" font-family="sans-serif" font-size="12" lengthAdjust="spacing" textLength="84" x="912.5" y="398.9199">3D ownership</text><line style="stroke:#181818;stroke-width:1.5;" x1="892.5" x2="902.5" y1="443.7344" y2="443.7344"/><rect fill="#F1F1F1" height="33.9688" style="stroke:#181818;stroke-width:1.5;" width="94" x="902.5" y="426.75"/><text fill="#000000" font-family="sans-serif" font-size="12" lengthAdjust="spacing" textLength="74" x="912.5" y="447.8887">Quantum Go</text><line style="stroke:#181818;stroke-width:1.5;" x1="892.5" x2="902.5" y1="492.7031" y2="492.7031"/><rect fill="#F1F1F1" height="33.9688" style="stroke:#181818;stroke-width:1.5;" width="94" x="902.5" y="475.7188"/><text fill="#000000" font-family="sans-serif" font-size="12" lengthAdjust="spacing" textLength="70" x="912.5" y="496.8574">Toroidal Go</text><line style="stroke:#181818;stroke-width:1.5;" x1="892.5" x2="902.5" y1="541.6719" y2="541.6719"/><rect fill="#F1F1F1" height="33.9688" style="stroke:#181818;stroke-width:1.5;" width="136" x="902.5" y="524.6875"/><text fill="#000000" font-family="sans-serif" font-size="12" lengthAdjust="spacing" textLength="116" x="912.5" y="545.8262">Reuse Captures Go</text><line style="stroke:#181818;stroke-width:1.5;" x1="892.5" x2="892.5" y1="117.9375" y2="541.6719"/><line style="stroke:#181818;stroke-width:1.5;" x1="1163" x2="1163" y1="63.9688" y2="83.9688"/><rect fill="#F1F1F1" height="33.9688" style="stroke:#181818;stroke-width:1.5;" width="97" x="1114.5" y="83.9688"/><text fill="#000000" font-family="sans-serif" font-size="12" lengthAdjust="spacing" textLength="77" x="1124.5" y="105.1074">0.0.5 Review</text><line style="stroke:#181818;stroke-width:1.5;" x1="1163" x2="1173" y1="149.9219" y2="149.9219"/><rect fill="#F1F1F1" height="33.9688" style="stroke:#181818;stroke-width:1.5;" width="112" x="1173" y="132.9375"/><text fill="#000000" font-family="sans-serif" font-size="12" lengthAdjust="spacing" textLength="92" x="1183" y="154.0762">exercise mode</text><line style="stroke:#181818;stroke-width:1.5;" x1="1163" x2="1173" y1="198.8906" y2="198.8906"/><rect fill="#F1F1F1" height="33.9688" style="stroke:#181818;stroke-width:1.5;" width="156" x="1173" y="181.9063"/><text fill="#000000" font-family="sans-serif" font-size="12" lengthAdjust="spacing" textLength="136" x="1183" y="203.0449">control analyze details</text><line style="stroke:#181818;stroke-width:1.5;" x1="1163" x2="1173" y1="247.8594" y2="247.8594"/><rect fill="#F1F1F1" height="33.9688" style="stroke:#181818;stroke-width:1.5;" width="153" x="1173" y="230.875"/><text fill="#000000" font-family="sans-serif" font-size="12" lengthAdjust="spacing" textLength="133" x="1183" y="252.0137">select data to analyze</text><line style="stroke:#181818;stroke-width:1.5;" x1="1163" x2="1173" y1="296.8281" y2="296.8281"/><rect fill="#F1F1F1" height="33.9688" style="stroke:#181818;stroke-width:1.5;" width="159" x="1173" y="279.8438"/><text fill="#000000" font-family="sans-serif" font-size="12" lengthAdjust="spacing" textLength="139" x="1183" y="300.9824">filter data after analyze</text><line style="stroke:#181818;stroke-width:1.5;" x1="1163" x2="1173" y1="345.7969" y2="345.7969"/><rect fill="#F1F1F1" height="33.9688" style="stroke:#181818;stroke-width:1.5;" width="228" x="1173" y="328.8125"/><text fill="#000000" font-family="sans-serif" font-size="12" lengthAdjust="spacing" textLength="208" x="1183" y="349.9512">SVG PNG pseudo image recognize</text><line style="stroke:#181818;stroke-width:1.5;" x1="1163" x2="1173" y1="394.7656" y2="394.7656"/><rect fill="#F1F1F1" height="33.9688" style="stroke:#181818;stroke-width:1.5;" width="167" x="1173" y="377.7813"/><text fill="#000000" font-family="sans-serif" font-size="12" lengthAdjust="spacing" textLength="147" x="1183" y="398.9199">multiple boards preview</text><line style="stroke:#181818;stroke-width:1.5;" x1="1163" x2="1173" y1="443.7344" y2="443.7344"/><rect fill="#F1F1F1" height="33.9688" style="stroke:#181818;stroke-width:1.5;" width="159" x="1173" y="426.75"/><text fill="#000000" font-family="sans-serif" font-size="12" lengthAdjust="spacing" textLength="139" x="1183" y="447.8887">multiple games contain</text><line style="stroke:#181818;stroke-width:1.5;" x1="1163" x2="1173" y1="492.7031" y2="492.7031"/><rect fill="#F1F1F1" height="33.9688" style="stroke:#181818;stroke-width:1.5;" width="42" x="1173" y="475.7188"/><text fill="#000000" font-family="sans-serif" font-size="12" lengthAdjust="spacing" textLength="22" x="1183" y="496.8574">PDF</text><line style="stroke:#181818;stroke-width:1.5;" x1="1163" x2="1173" y1="541.6719" y2="541.6719"/><rect fill="#F1F1F1" height="33.9688" style="stroke:#181818;stroke-width:1.5;" width="86" x="1173" y="524.6875"/><text fill="#000000" font-family="sans-serif" font-size="12" lengthAdjust="spacing" textLength="66" x="1183" y="545.8262">open book</text><line style="stroke:#181818;stroke-width:1.5;" x1="1163" x2="1173" y1="590.6406" y2="590.6406"/><rect fill="#F1F1F1" height="33.9688" style="stroke:#181818;stroke-width:1.5;" width="178" x="1173" y="573.6563"/><text fill="#000000" font-family="sans-serif" font-size="12" lengthAdjust="spacing" textLength="158" x="1183" y="594.7949">rank, ratings, ladder mach</text><line style="stroke:#181818;stroke-width:1.5;" x1="1163" x2="1173" y1="639.6094" y2="639.6094"/><rect fill="#F1F1F1" height="33.9688" style="stroke:#181818;stroke-width:1.5;" width="117" x="1173" y="622.625"/><text fill="#000000" font-family="sans-serif" font-size="12" lengthAdjust="spacing" textLength="97" x="1183" y="643.7637">Topological Go?</text><line style="stroke:#181818;stroke-width:1.5;" x1="1163" x2="1173" y1="688.5781" y2="688.5781"/><rect fill="#F1F1F1" height="33.9688" style="stroke:#181818;stroke-width:1.5;" width="91" x="1173" y="671.5938"/><text fill="#000000" font-family="sans-serif" font-size="12" lengthAdjust="spacing" textLength="71" x="1183" y="692.7324">Neurotic Go</text><line style="stroke:#181818;stroke-width:1.5;" x1="1163" x2="1173" y1="737.5469" y2="737.5469"/><rect fill="#F1F1F1" height="33.9688" style="stroke:#181818;stroke-width:1.5;" width="179" x="1173" y="720.5625"/><text fill="#000000" font-family="sans-serif" font-size="12" lengthAdjust="spacing" textLength="159" x="1183" y="741.7012">Alice in Wonderland mode</text><line style="stroke:#181818;stroke-width:1.5;" x1="1163" x2="1163" y1="117.9375" y2="737.5469"/><line style="stroke:#181818;stroke-width:1.5;" x1="1470.5" x2="1470.5" y1="63.9688" y2="83.9688"/><rect fill="#F1F1F1" height="33.9688" style="stroke:#181818;stroke-width:1.5;" width="99" x="1421" y="83.9688"/><text fill="#000000" font-family="sans-serif" font-size="12" lengthAdjust="spacing" textLength="79" x="1431" y="105.1074">0.0.6 Custom</text><line style="stroke:#181818;stroke-width:1.5;" x1="1470.5" x2="1480.5" y1="149.9219" y2="149.9219"/><rect fill="#F1F1F1" height="33.9688" style="stroke:#181818;stroke-width:1.5;" width="86" x="1480.5" y="132.9375"/><text fill="#000000" font-family="sans-serif" font-size="12" lengthAdjust="spacing" textLength="66" x="1490.5" y="154.0762">CSS theme</text><line style="stroke:#181818;stroke-width:1.5;" x1="1470.5" x2="1480.5" y1="198.8906" y2="198.8906"/><rect fill="#F1F1F1" height="33.9688" style="stroke:#181818;stroke-width:1.5;" width="99" x="1480.5" y="181.9063"/><text fill="#000000" font-family="sans-serif" font-size="12" lengthAdjust="spacing" textLength="79" x="1490.5" y="203.0449">stones' color</text><line style="stroke:#181818;stroke-width:1.5;" x1="1470.5" x2="1480.5" y1="247.8594" y2="247.8594"/><rect fill="#F1F1F1" height="33.9688" style="stroke:#181818;stroke-width:1.5;" width="143" x="1480.5" y="230.875"/><text fill="#000000" font-family="sans-serif" font-size="12" lengthAdjust="spacing" textLength="123" x="1490.5" y="252.0137">boardsize x,y adjust</text><line style="stroke:#181818;stroke-width:1.5;" x1="1470.5" x2="1470.5" y1="117.9375" y2="247.8594"/><line style="stroke:#181818;stroke-width:1.5;" x1="83.5" x2="1470.5" y1="63.9688" y2="63.9688"/><rect fill="#F1F1F1" height="33.9688" style="stroke:#181818;stroke-width:1.5;" width="177" x="688.5" y="10"/><text fill="#000000" font-family="sans-serif" font-size="12" lengthAdjust="spacing" textLength="157" x="698.5" y="31.1387">VastGo Roadmap Timeline</text><line style="stroke:#181818;stroke-width:1.5;" x1="777" x2="777" y1="43.9688" y2="63.9688"/><!--MD5=[aed05e16c3616dc762cf07ecf4eec376]
@startwbs
* VastGo Roadmap Timeline
** 2203 0.0.1 Just Work
*** move stones
*** auto take turns
*** report final_score
*** One Color Go
*** Phantom Go
*** Blind Go
*** Magnet Go 
** 0.0.2 GTP
*** multiple platform
*** multiple bot
*** universal GTP CLI (API)
*** bots' status table
*** CLI/WebApp double modes?
*** handicaps
*** Dots Go
*** Chess Whiz Go
*** Random Start Go
*** Double Go
** 0.0.3 SGF
*** edit mode
*** navigator(position_history)
*** captures
*** printsgf and loadsgf 
**** move_history
**** SBKV for win rate
**** OGSC for score lead
**** OGS,Fox,Yike,Golaxy,KaTrain...
*** Fog of War Go
**** ownership 
**** final_status_list
*** First Capture Go
*** Pair Go
*** Multi Color Go
** 0.0.4 Plot
*** review mode
*** playtime data to first review
*** SBKV OGSC gametree curve
*** spline
*** f' f"
*** 3D ownership
*** Quantum Go
*** Toroidal Go 
*** Reuse Captures Go
** 0.0.5 Review
*** exercise mode
*** control analyze details
*** select data to analyze
*** filter data after analyze
*** SVG PNG pseudo image recognize
*** multiple boards preview
*** multiple games contain
*** PDF
*** open book
*** rank, ratings, ladder mach
*** Topological Go?
*** Neurotic Go
*** Alice in Wonderland mode
** 0.0.6 Custom
*** CSS theme
*** stones' color
*** boardsize x,y adjust
@endwbs

PlantUML version 1.2022.7beta2(Unknown compile time)
(GPL source distribution)
Java Runtime: Java(TM) SE Runtime Environment
JVM: Java HotSpot(TM) 64-Bit Server VM
Default Encoding: UTF-8
Language: en
Country: US
--></g></svg>