<?xml version="1.0" encoding="UTF-8" standalone="no"?><svg xmlns="http://www.w3.org/2000/svg" xmlns:xlink="http://www.w3.org/1999/xlink" contentStyleType="text/css" height="346px" preserveAspectRatio="none" style="width:484px;height:346px;background:#FFFFFF;" version="1.1" viewBox="0 0 484 346" width="484px" zoomAndPan="magnify"><defs><linearGradient id="gy6rsssqsf5lf0" x1="0%" x2="100%" y1="0%" y2="100%"><stop offset="0%" stop-color="#A52A2A"/><stop offset="100%" stop-color="#FFA500"/></linearGradient><linearGradient id="gy6rsssqsf5lf1" x1="0%" x2="100%" y1="0%" y2="100%"><stop offset="0%" stop-color="#808080"/><stop offset="100%" stop-color="#FFFFFF"/></linearGradient></defs><g><!--MD5=[1a72428800d2b9fcd74d5b2f51c643cf]
cluster computer,phone,etc--><g id="cluster_computer,phone,etc"><path d="M80.5,6 L244.5,6 A3.75,3.75 0 0 1 247,8.5 L254,28.2969 L361.5,28.2969 A2.5,2.5 0 0 1 364,30.7969 L364,337 A2.5,2.5 0 0 1 361.5,339.5 L80.5,339.5 A2.5,2.5 0 0 1 78,337 L78,8.5 A2.5,2.5 0 0 1 80.5,6 " style="stroke:#000000;stroke-width:1.5;fill:none;"/><line style="stroke:#000000;stroke-width:1.5;fill:none;" x1="78" x2="254" y1="28.2969" y2="28.2969"/><text fill="#000000" font-family="sans-serif" font-size="14" font-weight="bold" lengthAdjust="spacing" textLength="163" x="82" y="20.9951">computer,phone,etc</text></g><g id="elem_g"><ellipse cx="206.0751" cy="64.215" fill="url(#gy6rsssqsf5lf0)" rx="104.0751" ry="23.215" style="stroke:#181818;stroke-width:0.5;"/><text fill="#000000" font-family="sans-serif" font-size="14" lengthAdjust="spacing" textLength="173" x="119.5751" y="67.0617">Graphical User Interface</text></g><g id="elem_e"><ellipse cx="215.8371" cy="186.1674" fill="url(#gy6rsssqsf5lf1)" rx="101.3371" ry="22.6674" style="stroke:#181818;stroke-width:0.5;"/><text fill="#000000" font-family="sans-serif" font-size="14" lengthAdjust="spacing" textLength="167" x="132.3371" y="189.0141">GoTextProtocol Engine</text></g><g id="elem_n"><ellipse cx="220.9187" cy="296.1837" fill="#98FB98" rx="126.4187" ry="27.6837" style="stroke:#181818;stroke-width:1.0;stroke-dasharray:1.0,3.0;"/><text fill="#000000" font-family="sans-serif" font-size="14" lengthAdjust="spacing" textLength="221" x="110.4187" y="299.0304">Neural Networks Model/Weight</text></g><!--MD5=[7d46d6cd919e02e6168a09ad91eae8b4]
entity u--><g id="elem_u"><ellipse cx="33" cy="42" fill="#FFC0CB" rx="16" ry="16" style="stroke:#FF0000;stroke-width:1.5;"/><path d="M33,62 C37,62 40,62 44,58 C52,58 60,66 60,74 L60,78 C60,82 56,86 52,86 L14,86 C10,86 6,82 6,78 L6,74 C6,66 14,58 22,58 C26,62 29,62 33,62 " fill="#FFC0CB" style="stroke:#FF0000;stroke-width:1.5;"/><text fill="#FF0000" font-family="sans-serif" font-size="14" lengthAdjust="spacing" textLength="31" x="17.5" y="100.4951">User</text></g><g id="elem_GMN923349"><path d="M382.5,283.5 L382.5,292 L347.543,296 L382.5,300 L382.5,308.6328 A0,0 0 0 0 382.5,308.6328 L477.5,308.6328 A0,0 0 0 0 477.5,308.6328 L477.5,293.5 L467.5,283.5 L382.5,283.5 A0,0 0 0 0 382.5,283.5 " fill="#FEFFDD" style="stroke:#181818;stroke-width:0.5;"/><path d="M467.5,283.5 L467.5,293.5 L477.5,293.5 L467.5,283.5 " fill="#FEFFDD" style="stroke:#181818;stroke-width:0.5;"/><text fill="#000000" font-family="sans-serif" font-size="13" lengthAdjust="spacing" textLength="74" x="388.5" y="300.5669">Since 2016.</text></g><!--MD5=[33b7725fa0d020dcc8a4770568cece14]
link u to g--><g id="link_u_g"><path d="M61.7207,80.407 C94.6673,95.481 127.614,97.662 160.56,86.95 " fill="none" id="u-to-g" style="stroke:#181818;stroke-width:1.0;"/><polygon fill="#181818" points="165.421,85.276,155.6089,84.4257,160.6937,86.9046,158.2147,91.9894,165.421,85.276" style="stroke:#181818;stroke-width:1.0;"/></g><!--MD5=[712e2f640423e2eeae5620ee9b14c124]
reverse link u to g--><g id="link_u_g"><path d="M66.5817,45.463 C99.5283,31.656 132.475,30.744 165.421,42.724 " fill="none" id="u-backto-g" style="stroke:#181818;stroke-width:1.0;"/><polygon fill="#181818" points="61.7207,47.593,71.5694,47.6439,66.3002,45.5859,68.3581,40.3167,61.7207,47.593" style="stroke:#181818;stroke-width:1.0;"/></g><!--MD5=[852c58c58d54d8f00d933bd6044530ca]
link g to e--><g id="link_g_e"><path d="M197.702,87.01 C196.124,107.18 198.4,137.081 203.014,158.544 " fill="none" id="g-to-e" style="stroke:#181818;stroke-width:1.0;"/><polygon fill="#181818" points="204.168,163.533,206.0389,153.8635,203.0422,158.6614,198.2443,155.6647,204.168,163.533" style="stroke:#181818;stroke-width:1.0;"/></g><!--MD5=[f902d6fba76d292f22e7cf0750005f84]
reverse link g to e--><g id="link_g_e"><path d="M219.749,92.039 C224.484,113.653 226.687,143.54 224.845,163.533 " fill="none" id="g-backto-e" style="stroke:#181818;stroke-width:1.0;"/><polygon fill="#181818" points="218.562,87.01,216.7367,96.6882,219.7107,91.8763,224.5227,94.8503,218.562,87.01" style="stroke:#181818;stroke-width:1.0;"/></g><!--MD5=[5ce0f306a58269411f2d355994db65ba]
link e to n--><g id="link_e_n"><path d="M206.561,208.596 C204.727,224.216 205.281,245.576 207.781,263.1503 " fill="none" id="e-to-n" style="stroke:#181818;stroke-width:1.0;stroke-dasharray:1.0,3.0;"/><polygon fill="#181818" points="208.619,268.4722,211.17,258.9594,207.8411,263.5331,203.2674,260.2042,208.619,268.4722" style="stroke:#181818;stroke-width:1.0;"/></g><!--MD5=[9a1d269d92459c152b9028848ec86670]
reverse link e to n--><g id="link_e_n"><path d="M229.053,213.617 C232.069,230.323 233.059,251.783 231.581,268.4722 " fill="none" id="e-backto-n" style="stroke:#181818;stroke-width:1.0;stroke-dasharray:1.0,3.0;"/><polygon fill="#181818" points="228.052,208.596,225.8877,218.2041,229.029,213.4996,233.7335,216.6409,228.052,208.596" style="stroke:#181818;stroke-width:1.0;"/></g><!--MD5=[a043eea18273218552ef2f47697c90b8]
@startuml
skinparam actorStyle awesome
actor User as u #pink;line:red;line.bold;text:red

package computer,phone,etc {
usecase "Graphical User Interface" as g #brown/orange
usecase "GoTextProtocol Engine" as e #gray/white
usecase "Neural Networks Model/Weight" as n #line.dotted;back:palegreen
}

u -> g
u <- g
g - -> e
g <- - e
e - -> n #line.dotted
e <- - n #line.dotted

note right of n: Since 2016.
@enduml

PlantUML version 1.2022.6beta5(Unknown compile time)
(GPL source distribution)
Java Runtime: Java(TM) SE Runtime Environment
JVM: Java HotSpot(TM) 64-Bit Server VM
Default Encoding: UTF-8
Language: en
Country: US
--></g></svg>